<svg xmlns="http://www.w3.org/2000/svg" xmlns:xlink="http://www.w3.org/1999/xlink" width="2000" zoomAndPan="magnify" viewBox="0 0 1500 1499.999933" height="2000" preserveAspectRatio="xMidYMid meet" version="1.0"><defs><clipPath id="3741a98e94"><path d="M 1.355469 1 L 1434 1 L 1434 1275 L 1.355469 1275 Z M 1.355469 1 " clip-rule="nonzero"/></clipPath><clipPath id="66da7f0540"><rect x="0" width="1437" y="0" height="1276"/></clipPath></defs><g transform="matrix(1, 0, 0, 1, 35, 106)"><g clip-path="url(#66da7f0540)"><g clip-path="url(#3741a98e94)"><path fill="#096088" d="M 1169.183594 158.183594 L 1160.445312 152.21875 C 1092.386719 106.929688 1011.085938 70.433594 916.539062 42.722656 C 830.6875 14.371094 744.101562 0.660156 656.785156 1.59375 C 514.679688 9.699219 375.644531 76.175781 239.683594 201.023438 C 176.84375 267.402344 119.992188 356.074219 69.132812 467.039062 C 26.742188 558.195312 4.203125 638.265625 1.511719 707.25 C 3.058594 896.40625 75.480469 1040.582031 218.769531 1139.78125 C 323.527344 1202.328125 417.492188 1240.78125 500.660156 1255.140625 C 600.261719 1277.035156 722.398438 1280.011719 867.078125 1264.070312 C 922.105469 1258.109375 977.769531 1237.449219 1034.070312 1202.089844 C 1179.191406 1105.601562 1270.238281 1035.378906 1307.210938 991.429688 C 1412.394531 873.515625 1452.039062 735.382812 1426.144531 577.039062 C 1392.59375 409.183594 1306.941406 269.566406 1169.183594 158.183594 " fill-opacity="1" fill-rule="nonzero"/></g><path fill="#f2f6f5" d="M 628.574219 196.707031 C 659.019531 222.191406 657.863281 271.976562 625.523438 295.339844 C 605.988281 309.453125 582.640625 308.746094 560.921875 300.109375 L 556.488281 301.414062 C 517 333.152344 474.863281 361.207031 428.246094 381.617188 C 410.375 389.445312 391.59375 395.148438 373.652344 402.710938 C 362.296875 407.503906 354.816406 413.921875 357.628906 427.761719 C 359.617188 437.554688 378.40625 443.257812 386.539062 447.179688 C 434.578125 470.347656 480.09375 495.320312 524.730469 524.289062 C 555.011719 543.941406 591.011719 579.871094 626.6875 548.011719 C 631.6875 543.542969 635.175781 537.539062 639.292969 532.273438 C 671.503906 491.046875 700.863281 449.230469 737.085938 411 C 775.597656 370.355469 820.347656 336.375 867.238281 305.949219 C 867.804688 306.488281 868.574219 307.015625 868.941406 307.714844 C 870.90625 311.394531 872.3125 316.21875 874.507812 320.195312 C 876.707031 324.171875 879.75 327.976562 881.878906 331.824219 L 880.949219 333.421875 L 847.597656 354.84375 C 783.050781 400.925781 729.886719 461.390625 683.648438 525.238281 C 673.476562 539.296875 652.101562 567.1875 650.949219 583.941406 C 649.0625 611.382812 688.878906 638.324219 707.214844 654.875 C 712.25 659.414062 717.589844 664.195312 722.570312 668.910156 C 745.917969 691 773.484375 729.371094 808.425781 729.253906 C 830.804688 729.175781 865.3125 706.324219 884.886719 694.914062 C 964.988281 648.21875 1040.117188 594.371094 1106.480469 529.445312 C 1112.273438 523.132812 1105.957031 516.132812 1103.945312 509.375 C 1089.539062 461.035156 1141.46875 417.765625 1187.101562 438.457031 C 1235.03125 460.1875 1234.261719 529.089844 1185.941406 550.105469 C 1170.292969 556.917969 1157.820312 556.027344 1141.609375 552.0625 C 1139.457031 551.535156 1136.132812 549.625 1133.75 549.398438 C 1128.375 548.902344 1115.652344 563.328125 1111.488281 567.0625 C 1045.507812 626.207031 972.335938 678.402344 896.800781 723.847656 C 885.855469 730.433594 874.238281 736.160156 863.363281 742.808594 C 842.160156 755.777344 823.984375 771.09375 846.53125 794.722656 C 857.722656 806.449219 871.277344 817.410156 883.355469 828.226562 C 905.351562 847.933594 927.675781 867.453125 950.324219 886.449219 C 986.417969 916.726562 1023.566406 955.554688 1066.050781 908.238281 C 1083.253906 889.074219 1099.542969 866.566406 1116.15625 846.550781 C 1120.210938 841.664062 1129.710938 832.578125 1132.335938 827.800781 C 1136.21875 820.742188 1128.398438 812.703125 1126.316406 805.503906 C 1111.433594 754.0625 1163.871094 711.273438 1211.550781 735.40625 C 1261.40625 760.640625 1252.660156 834.433594 1197.796875 847.265625 C 1184.101562 850.464844 1178.230469 847.007812 1165.851562 845.734375 C 1159.730469 845.105469 1157.835938 846.0625 1153.6875 850.316406 C 1139.792969 864.570312 1125.53125 884.632812 1112.910156 900.359375 C 1103.675781 911.863281 1093.855469 922.96875 1085.035156 934.800781 C 1083.511719 936.84375 1080.21875 941.417969 1080.007812 943.769531 C 1079.667969 947.632812 1084.414062 955.320312 1085.578125 959.769531 C 1090.679688 979.242188 1084.566406 1004.539062 1069.5625 1018.304688 C 1050.757812 1035.539062 1028.699219 1037.867188 1005.121094 1029.167969 C 995.953125 1025.789062 991.371094 1020.632812 981.132812 1025.355469 C 971.527344 1029.78125 958.507812 1040.6875 948.988281 1046.777344 C 917.078125 1067.179688 884.132812 1086.15625 850.4375 1103.6875 C 841.453125 1108.363281 831.8125 1112.035156 823.402344 1117.691406 C 823.890625 1131.785156 821.289062 1145.183594 813.625 1157.121094 C 786.953125 1198.644531 717.917969 1185.8125 709.015625 1136.625 C 699.875 1086.125 753.398438 1052.167969 796.984375 1077.765625 C 806.710938 1083.476562 807.300781 1089.773438 820.164062 1084.484375 C 831.828125 1079.6875 846.332031 1071.601562 857.738281 1065.589844 C 883.371094 1052.082031 910.820312 1036.421875 934.757812 1020.339844 C 946.363281 1012.539062 972.730469 994.824219 977.265625 981.921875 C 986.679688 955.164062 963.851562 939.390625 946.898438 924.074219 C 916.171875 896.320312 884.425781 869.050781 852.917969 841.90625 C 840.234375 830.984375 827.796875 818.621094 814.066406 809.019531 C 777.265625 783.3125 747.472656 802.855469 713.492188 821.199219 C 621.335938 870.945312 524.859375 935.382812 460.542969 1018.902344 C 458.671875 1021.324219 452.851562 1028.65625 452.410156 1031.148438 C 451.308594 1037.371094 453.941406 1038.054688 456.101562 1042.519531 C 466.632812 1064.277344 460.128906 1093.621094 442.484375 1109.722656 C 416.699219 1133.246094 376.75 1131.289062 354.894531 1103.554688 C 332.597656 1075.25 342.546875 1031.164062 374.824219 1015.28125 C 389.894531 1007.871094 399.308594 1009.042969 415.410156 1010.433594 C 422.101562 1011.011719 425.902344 1010.148438 430.546875 1005.207031 C 447.710938 986.949219 464.859375 966.769531 480.9375 947.445312 C 497.015625 928.121094 528.410156 895.054688 525.023438 869.96875 C 523.136719 855.996094 515.332031 845.464844 502.40625 840.191406 C 482.785156 832.183594 457.917969 827.203125 437.242188 820.351562 C 373.839844 799.351562 313.15625 771.007812 253.886719 740.539062 C 243.609375 738.230469 237.039062 745.671875 228.035156 749.128906 C 174.054688 769.851562 125.246094 709.664062 151.957031 659.652344 C 171.167969 623.699219 220.378906 614.738281 249.203125 645.074219 C 266.03125 662.785156 268.441406 679.304688 265.472656 702.714844 C 264.953125 706.835938 265.800781 710.410156 269.023438 713.175781 C 332.882812 748.359375 400.253906 778.574219 470.460938 798.785156 C 493.699219 805.480469 532.433594 819.28125 545.660156 789.59375 C 550.828125 778.007812 552.167969 764.4375 554.902344 752.257812 C 562.546875 718.164062 570.925781 683.535156 577.132812 649.308594 C 584.433594 609.066406 559.496094 588.179688 530.113281 566.214844 C 494.648438 539.707031 452.574219 514.828125 413.195312 494.496094 C 395.019531 485.113281 370.375 472.210938 351.199219 466.246094 C 333.234375 460.65625 329.085938 471.472656 313.722656 476.140625 C 279.71875 486.472656 243.042969 465.003906 234.777344 430.703125 C 228.679688 405.398438 238.988281 376.132812 261.140625 361.851562 C 285.496094 346.144531 317.210938 348.675781 338.585938 368.234375 C 344.355469 373.515625 344.144531 378.90625 353.558594 377.414062 C 357.496094 376.792969 361.855469 374.410156 365.550781 373.105469 C 420.347656 353.757812 473.503906 329.050781 518.894531 292.53125 C 521.847656 290.152344 531.230469 282.765625 532.621094 279.90625 C 535.292969 274.417969 529.691406 266.199219 528.230469 260.691406 C 512.652344 201.902344 581.527344 157.359375 628.574219 196.738281 Z M 695.535156 685.789062 C 682.484375 674.03125 660.550781 652.824219 642.949219 650.167969 C 606.789062 644.710938 603.648438 681.058594 597.707031 706.542969 C 587.75 749.246094 578.25 792.242188 569.304688 835.34375 C 567.804688 842.574219 563.378906 853.363281 568.039062 860.167969 C 573.460938 868.082031 583.433594 863.777344 590.105469 860.214844 C 608.984375 850.132812 628.480469 835.546875 647.292969 824.242188 C 672.324219 809.207031 699.214844 795.722656 723.679688 780.113281 C 738.199219 770.847656 757.636719 758.761719 745.769531 738.90625 C 736.15625 722.832031 709.988281 698.808594 695.542969 685.789062 Z M 695.535156 685.789062 " fill-opacity="1" fill-rule="nonzero"/><path fill="#febf2f" d="M 1095.882812 268.605469 C 1095.882812 270.621094 1095.835938 272.636719 1095.734375 274.648438 C 1095.636719 276.660156 1095.488281 278.671875 1095.292969 280.675781 C 1095.09375 282.679688 1094.847656 284.679688 1094.550781 286.675781 C 1094.257812 288.667969 1093.910156 290.652344 1093.519531 292.628906 C 1093.125 294.605469 1092.683594 296.570312 1092.195312 298.523438 C 1091.703125 300.480469 1091.167969 302.421875 1090.582031 304.351562 C 1089.996094 306.277344 1089.367188 308.191406 1088.6875 310.089844 C 1088.007812 311.984375 1087.28125 313.863281 1086.511719 315.726562 C 1085.742188 317.589844 1084.925781 319.429688 1084.0625 321.253906 C 1083.199219 323.074219 1082.296875 324.871094 1081.34375 326.648438 C 1080.394531 328.425781 1079.402344 330.179688 1078.367188 331.910156 C 1077.332031 333.636719 1076.253906 335.339844 1075.132812 337.015625 C 1074.011719 338.691406 1072.855469 340.335938 1071.652344 341.957031 C 1070.453125 343.574219 1069.214844 345.164062 1067.933594 346.71875 C 1066.65625 348.277344 1065.339844 349.804688 1063.988281 351.296875 C 1062.632812 352.789062 1061.246094 354.25 1059.820312 355.671875 C 1058.394531 357.097656 1056.9375 358.488281 1055.445312 359.839844 C 1053.949219 361.195312 1052.425781 362.507812 1050.867188 363.789062 C 1049.308594 365.066406 1047.722656 366.304688 1046.101562 367.507812 C 1044.484375 368.707031 1042.835938 369.867188 1041.160156 370.984375 C 1039.484375 372.105469 1037.785156 373.183594 1036.054688 374.21875 C 1034.328125 375.253906 1032.574219 376.25 1030.796875 377.199219 C 1029.019531 378.148438 1027.21875 379.054688 1025.398438 379.914062 C 1023.578125 380.777344 1021.734375 381.59375 1019.875 382.363281 C 1018.011719 383.136719 1016.132812 383.859375 1014.234375 384.539062 C 1012.339844 385.21875 1010.425781 385.851562 1008.496094 386.433594 C 1006.570312 387.019531 1004.625 387.558594 1002.671875 388.046875 C 1000.71875 388.535156 998.75 388.976562 996.777344 389.371094 C 994.800781 389.765625 992.8125 390.109375 990.820312 390.40625 C 988.828125 390.699219 986.828125 390.945312 984.824219 391.144531 C 982.816406 391.34375 980.808594 391.492188 978.796875 391.589844 C 976.78125 391.6875 974.769531 391.738281 972.753906 391.738281 C 970.738281 391.738281 968.726562 391.6875 966.710938 391.589844 C 964.699219 391.492188 962.691406 391.34375 960.683594 391.144531 C 958.679688 390.945312 956.679688 390.699219 954.6875 390.40625 C 952.695312 390.109375 950.707031 389.765625 948.730469 389.371094 C 946.757812 388.976562 944.789062 388.535156 942.835938 388.046875 C 940.882812 387.558594 938.9375 387.019531 937.011719 386.433594 C 935.082031 385.851562 933.167969 385.21875 931.273438 384.539062 C 929.375 383.859375 927.496094 383.136719 925.632812 382.363281 C 923.773438 381.59375 921.929688 380.777344 920.109375 379.914062 C 918.289062 379.054688 916.488281 378.148438 914.710938 377.199219 C 912.933594 376.25 911.179688 375.253906 909.453125 374.21875 C 907.722656 373.183594 906.023438 372.105469 904.347656 370.984375 C 902.671875 369.867188 901.023438 368.707031 899.40625 367.507812 C 897.785156 366.304688 896.199219 365.066406 894.640625 363.789062 C 893.082031 362.507812 891.558594 361.195312 890.0625 359.839844 C 888.570312 358.488281 887.113281 357.097656 885.6875 355.671875 C 884.261719 354.25 882.875 352.789062 881.519531 351.296875 C 880.167969 349.804688 878.851562 348.277344 877.574219 346.71875 C 876.292969 345.164062 875.054688 343.574219 873.855469 341.957031 C 872.652344 340.335938 871.492188 338.691406 870.375 337.015625 C 869.253906 335.339844 868.175781 333.636719 867.140625 331.910156 C 866.105469 330.179688 865.113281 328.425781 864.164062 326.648438 C 863.210938 324.871094 862.308594 323.074219 861.445312 321.253906 C 860.582031 319.429688 859.765625 317.589844 858.996094 315.726562 C 858.226562 313.863281 857.5 311.984375 856.820312 310.089844 C 856.140625 308.191406 855.511719 306.277344 854.925781 304.351562 C 854.339844 302.421875 853.804688 300.480469 853.3125 298.523438 C 852.824219 296.570312 852.382812 294.605469 851.988281 292.628906 C 851.597656 290.652344 851.25 288.667969 850.957031 286.675781 C 850.660156 284.679688 850.414062 282.679688 850.214844 280.675781 C 850.019531 278.671875 849.871094 276.660156 849.773438 274.648438 C 849.671875 272.636719 849.625 270.621094 849.625 268.605469 C 849.625 266.59375 849.671875 264.578125 849.773438 262.566406 C 849.871094 260.550781 850.019531 258.542969 850.214844 256.539062 C 850.414062 254.53125 850.660156 252.535156 850.957031 250.539062 C 851.25 248.546875 851.597656 246.5625 851.988281 244.585938 C 852.382812 242.609375 852.824219 240.644531 853.3125 238.6875 C 853.804688 236.734375 854.339844 234.792969 854.925781 232.863281 C 855.511719 230.9375 856.140625 229.023438 856.820312 227.125 C 857.5 225.226562 858.226562 223.347656 858.996094 221.488281 C 859.765625 219.625 860.582031 217.785156 861.445312 215.960938 C 862.308594 214.140625 863.210938 212.339844 864.164062 210.5625 C 865.113281 208.785156 866.105469 207.035156 867.140625 205.304688 C 868.175781 203.578125 869.253906 201.875 870.375 200.199219 C 871.492188 198.523438 872.652344 196.875 873.855469 195.257812 C 875.054688 193.640625 876.292969 192.050781 877.574219 190.492188 C 878.851562 188.9375 880.167969 187.410156 881.519531 185.917969 C 882.875 184.425781 884.261719 182.964844 885.6875 181.539062 C 887.113281 180.117188 888.570312 178.726562 890.066406 177.375 C 891.558594 176.019531 893.082031 174.703125 894.640625 173.425781 C 896.199219 172.148438 897.785156 170.90625 899.40625 169.707031 C 901.023438 168.507812 902.671875 167.347656 904.347656 166.226562 C 906.023438 165.109375 907.722656 164.03125 909.453125 162.996094 C 911.179688 161.957031 912.933594 160.964844 914.710938 160.015625 C 916.488281 159.066406 918.285156 158.160156 920.109375 157.296875 C 921.929688 156.4375 923.773438 155.621094 925.632812 154.847656 C 927.496094 154.078125 929.375 153.351562 931.273438 152.675781 C 933.167969 151.996094 935.082031 151.363281 937.011719 150.777344 C 938.9375 150.195312 940.882812 149.65625 942.835938 149.167969 C 944.789062 148.675781 946.757812 148.234375 948.730469 147.84375 C 950.707031 147.449219 952.695312 147.105469 954.6875 146.808594 C 956.679688 146.511719 958.679688 146.265625 960.683594 146.070312 C 962.691406 145.871094 964.699219 145.722656 966.710938 145.625 C 968.726562 145.527344 970.738281 145.476562 972.753906 145.476562 C 974.769531 145.476562 976.78125 145.527344 978.796875 145.625 C 980.808594 145.722656 982.816406 145.871094 984.824219 146.070312 C 986.828125 146.265625 988.828125 146.511719 990.820312 146.808594 C 992.8125 147.105469 994.800781 147.449219 996.777344 147.84375 C 998.75 148.234375 1000.71875 148.675781 1002.671875 149.167969 C 1004.625 149.65625 1006.570312 150.195312 1008.496094 150.777344 C 1010.425781 151.363281 1012.339844 151.996094 1014.234375 152.675781 C 1016.132812 153.351562 1018.011719 154.078125 1019.875 154.847656 C 1021.734375 155.621094 1023.578125 156.4375 1025.398438 157.296875 C 1027.21875 158.160156 1029.019531 159.066406 1030.796875 160.015625 C 1032.574219 160.964844 1034.328125 161.957031 1036.054688 162.996094 C 1037.785156 164.03125 1039.484375 165.109375 1041.160156 166.226562 C 1042.835938 167.347656 1044.484375 168.507812 1046.101562 169.707031 C 1047.722656 170.90625 1049.308594 172.148438 1050.867188 173.425781 C 1052.425781 174.703125 1053.949219 176.019531 1055.445312 177.375 C 1056.9375 178.726562 1058.394531 180.117188 1059.820312 181.539062 C 1061.246094 182.964844 1062.632812 184.425781 1063.988281 185.917969 C 1065.339844 187.410156 1066.65625 188.9375 1067.933594 190.492188 C 1069.214844 192.050781 1070.453125 193.640625 1071.652344 195.257812 C 1072.855469 196.875 1074.011719 198.523438 1075.132812 200.199219 C 1076.253906 201.875 1077.332031 203.578125 1078.367188 205.304688 C 1079.402344 207.035156 1080.394531 208.785156 1081.34375 210.5625 C 1082.296875 212.339844 1083.199219 214.140625 1084.0625 215.960938 C 1084.925781 217.785156 1085.742188 219.625 1086.511719 221.488281 C 1087.28125 223.347656 1088.007812 225.226562 1088.6875 227.125 C 1089.367188 229.023438 1089.996094 230.9375 1090.582031 232.863281 C 1091.167969 234.792969 1091.703125 236.734375 1092.195312 238.6875 C 1092.683594 240.644531 1093.125 242.609375 1093.519531 244.585938 C 1093.910156 246.5625 1094.257812 248.546875 1094.550781 250.539062 C 1094.847656 252.535156 1095.09375 254.53125 1095.292969 256.539062 C 1095.488281 258.542969 1095.636719 260.550781 1095.734375 262.566406 C 1095.835938 264.578125 1095.882812 266.59375 1095.882812 268.605469 Z M 1095.882812 268.605469 " fill-opacity="1" fill-rule="nonzero"/></g></g></svg>