<svg xmlns="http://www.w3.org/2000/svg" xmlns:xlink="http://www.w3.org/1999/xlink" width="2000" zoomAndPan="magnify" viewBox="0 0 1500 1499.999933" height="2000" preserveAspectRatio="xMidYMid meet" version="1.0"><path fill="#ffffff" d="M 672.871094 194.527344 C 708.902344 224.6875 707.535156 283.613281 669.257812 311.265625 C 646.136719 327.964844 618.503906 327.128906 592.804688 316.910156 L 587.554688 318.453125 C 540.820312 356.011719 490.949219 389.214844 435.777344 413.375 C 414.625 422.640625 392.398438 429.386719 371.164062 438.339844 C 357.722656 444.011719 348.871094 451.605469 352.199219 467.988281 C 354.550781 479.578125 376.789062 486.324219 386.414062 490.96875 C 443.269531 518.390625 497.136719 547.941406 549.964844 582.230469 C 585.808594 605.488281 628.414062 648.011719 670.636719 610.304688 C 676.554688 605.019531 680.683594 597.914062 685.554688 591.679688 C 723.675781 542.886719 758.425781 493.394531 801.296875 448.148438 C 846.875 400.046875 899.839844 359.828125 955.335938 323.820312 C 956.007812 324.457031 956.917969 325.082031 957.351562 325.90625 C 959.675781 330.265625 961.339844 335.972656 963.941406 340.679688 C 966.542969 345.386719 970.144531 349.890625 972.664062 354.441406 L 971.5625 356.335938 L 932.089844 381.6875 C 855.699219 436.226562 792.777344 507.789062 738.054688 583.351562 C 726.011719 599.992188 700.714844 633 699.351562 652.828125 C 697.121094 685.308594 744.238281 717.195312 765.945312 736.785156 C 771.898438 742.152344 778.226562 747.816406 784.117188 753.394531 C 811.75 779.539062 844.375 824.949219 885.730469 824.8125 C 912.214844 824.71875 953.058594 797.675781 976.222656 784.171875 C 1071.023438 728.90625 1159.941406 665.175781 1238.484375 588.335938 C 1245.339844 580.863281 1237.867188 572.578125 1235.488281 564.582031 C 1218.433594 507.367188 1279.894531 456.15625 1333.902344 480.644531 C 1390.628906 506.367188 1389.71875 587.914062 1332.53125 612.789062 C 1314.007812 620.847656 1299.246094 619.792969 1280.0625 615.105469 C 1277.515625 614.480469 1273.582031 612.21875 1270.757812 611.949219 C 1264.398438 611.363281 1249.339844 628.433594 1244.414062 632.855469 C 1166.324219 702.855469 1079.71875 764.628906 990.324219 818.414062 C 977.371094 826.210938 963.617188 832.984375 950.75 840.851562 C 925.652344 856.203125 904.144531 874.332031 930.828125 902.296875 C 944.074219 916.175781 960.117188 929.148438 974.410156 941.953125 C 1000.445312 965.273438 1026.863281 988.375 1053.667969 1010.859375 C 1096.386719 1046.691406 1140.355469 1092.644531 1190.636719 1036.644531 C 1211 1013.964844 1230.273438 987.328125 1249.9375 963.636719 C 1254.734375 957.855469 1265.980469 947.101562 1269.085938 941.445312 C 1273.683594 933.089844 1264.425781 923.578125 1261.960938 915.054688 C 1244.347656 854.171875 1306.40625 803.53125 1362.839844 832.09375 C 1421.847656 861.957031 1411.496094 949.296875 1346.558594 964.484375 C 1330.355469 968.269531 1323.402344 964.179688 1308.75 962.671875 C 1301.507812 961.925781 1299.265625 963.058594 1294.355469 968.09375 C 1277.910156 984.964844 1261.03125 1008.707031 1246.09375 1027.324219 C 1235.164062 1040.9375 1223.546875 1054.082031 1213.101562 1068.082031 C 1211.300781 1070.5 1207.402344 1075.914062 1207.15625 1078.699219 C 1206.75 1083.269531 1212.367188 1092.367188 1213.746094 1097.636719 C 1219.785156 1120.683594 1212.550781 1150.621094 1194.792969 1166.910156 C 1172.535156 1187.308594 1146.429688 1190.066406 1118.523438 1179.769531 C 1107.675781 1175.773438 1102.25 1169.667969 1090.136719 1175.257812 C 1078.765625 1180.496094 1063.359375 1193.402344 1052.085938 1200.609375 C 1014.324219 1224.757812 975.332031 1247.214844 935.453125 1267.964844 C 924.816406 1273.496094 913.410156 1277.847656 903.453125 1284.539062 C 904.035156 1301.222656 900.953125 1317.078125 891.878906 1331.207031 C 860.3125 1380.351562 778.609375 1365.164062 768.074219 1306.949219 C 757.257812 1247.179688 820.601562 1206.992188 872.191406 1237.289062 C 883.699219 1244.046875 884.398438 1251.5 899.621094 1245.242188 C 913.429688 1239.558594 930.589844 1229.988281 944.09375 1222.875 C 974.429688 1206.890625 1006.914062 1188.355469 1035.246094 1169.320312 C 1048.980469 1160.089844 1080.1875 1139.121094 1085.558594 1123.851562 C 1096.699219 1092.183594 1069.683594 1073.515625 1049.613281 1055.386719 C 1013.25 1022.542969 975.679688 990.269531 938.386719 958.140625 C 923.375 945.214844 908.65625 930.582031 892.40625 919.21875 C 848.851562 888.792969 813.589844 911.921875 773.371094 933.632812 C 664.300781 992.511719 550.121094 1068.773438 474 1167.617188 C 471.785156 1170.488281 464.898438 1179.164062 464.375 1182.117188 C 463.070312 1189.480469 466.183594 1190.289062 468.742188 1195.574219 C 481.207031 1221.320312 473.511719 1256.050781 452.625 1275.105469 C 422.105469 1302.949219 374.832031 1300.632812 348.960938 1267.808594 C 322.570312 1234.3125 334.347656 1182.132812 372.550781 1163.335938 C 390.382812 1154.566406 401.523438 1155.953125 420.582031 1157.597656 C 428.503906 1158.28125 433 1157.257812 438.496094 1151.414062 C 458.8125 1129.800781 479.109375 1105.917969 498.136719 1083.046875 C 517.167969 1060.175781 554.324219 1021.042969 550.316406 991.351562 C 548.082031 974.816406 538.84375 962.351562 523.546875 956.109375 C 500.328125 946.632812 470.890625 940.738281 446.421875 932.632812 C 371.382812 907.773438 299.5625 874.230469 229.414062 838.167969 C 217.253906 835.4375 209.476562 844.246094 198.820312 848.335938 C 134.933594 872.863281 77.167969 801.628906 108.78125 742.4375 C 131.515625 699.886719 189.757812 689.277344 223.871094 725.183594 C 243.792969 746.144531 246.640625 765.695312 243.128906 793.402344 C 242.511719 798.28125 243.515625 802.511719 247.332031 805.785156 C 322.910156 847.425781 402.648438 883.183594 485.738281 907.105469 C 513.242188 915.027344 559.085938 931.363281 574.738281 896.230469 C 580.851562 882.511719 582.441406 866.453125 585.679688 852.039062 C 594.722656 811.683594 604.644531 770.707031 611.988281 730.195312 C 620.628906 682.566406 591.113281 657.847656 556.335938 631.851562 C 514.363281 600.480469 464.566406 571.035156 417.960938 546.96875 C 396.449219 535.863281 367.285156 520.597656 344.585938 513.535156 C 323.324219 506.917969 318.414062 519.722656 300.234375 525.246094 C 259.988281 537.472656 216.582031 512.066406 206.800781 471.472656 C 199.585938 441.523438 211.78125 406.882812 238 389.980469 C 266.828125 371.390625 304.359375 374.390625 329.660156 397.535156 C 336.488281 403.785156 336.242188 410.167969 347.382812 408.402344 C 352.042969 407.664062 357.199219 404.84375 361.574219 403.300781 C 426.429688 380.402344 489.339844 351.160156 543.0625 307.9375 C 546.554688 305.125 557.660156 296.382812 559.304688 293 C 562.46875 286.5 555.839844 276.773438 554.113281 270.257812 C 535.671875 200.679688 617.191406 147.960938 672.871094 194.566406 Z M 752.117188 773.371094 C 736.675781 759.453125 710.714844 734.359375 689.886719 731.214844 C 647.085938 724.75 643.371094 767.773438 636.339844 797.933594 C 624.554688 848.472656 613.3125 899.363281 602.722656 950.371094 C 600.949219 958.929688 595.707031 971.699219 601.222656 979.75 C 607.640625 989.117188 619.441406 984.027344 627.339844 979.808594 C 649.6875 967.875 672.757812 950.613281 695.023438 937.238281 C 724.652344 919.441406 756.476562 903.480469 785.429688 885.003906 C 802.613281 874.039062 825.621094 859.734375 811.574219 836.238281 C 800.195312 817.210938 769.226562 788.777344 752.128906 773.371094 Z M 752.117188 773.371094 " fill-opacity="1" fill-rule="nonzero"/><path fill="#febf2f" d="M 1225.945312 279.625 C 1225.945312 282.007812 1225.886719 284.390625 1225.769531 286.773438 C 1225.652344 289.15625 1225.476562 291.535156 1225.242188 293.90625 C 1225.011719 296.28125 1224.71875 298.648438 1224.367188 301.007812 C 1224.019531 303.367188 1223.609375 305.714844 1223.144531 308.054688 C 1222.679688 310.394531 1222.15625 312.71875 1221.578125 315.03125 C 1221 317.347656 1220.363281 319.644531 1219.671875 321.925781 C 1218.976562 324.207031 1218.230469 326.472656 1217.425781 328.71875 C 1216.621094 330.964844 1215.765625 333.1875 1214.851562 335.390625 C 1213.941406 337.59375 1212.972656 339.773438 1211.953125 341.929688 C 1210.933594 344.085938 1209.863281 346.214844 1208.738281 348.320312 C 1207.613281 350.421875 1206.4375 352.496094 1205.210938 354.542969 C 1203.984375 356.589844 1202.710938 358.601562 1201.386719 360.585938 C 1200.058594 362.570312 1198.6875 364.519531 1197.265625 366.433594 C 1195.847656 368.347656 1194.378906 370.230469 1192.867188 372.074219 C 1191.351562 373.917969 1189.796875 375.722656 1188.195312 377.488281 C 1186.59375 379.257812 1184.949219 380.984375 1183.261719 382.667969 C 1181.574219 384.355469 1179.847656 386 1178.082031 387.601562 C 1176.316406 389.203125 1174.507812 390.761719 1172.667969 392.273438 C 1170.824219 393.785156 1168.941406 395.253906 1167.027344 396.671875 C 1165.113281 398.09375 1163.164062 399.46875 1161.179688 400.792969 C 1159.195312 402.117188 1157.183594 403.394531 1155.136719 404.617188 C 1153.089844 405.84375 1151.015625 407.019531 1148.914062 408.144531 C 1146.808594 409.269531 1144.679688 410.339844 1142.523438 411.359375 C 1140.367188 412.378906 1138.1875 413.347656 1135.984375 414.257812 C 1133.78125 415.171875 1131.558594 416.03125 1129.3125 416.832031 C 1127.066406 417.636719 1124.800781 418.382812 1122.519531 419.078125 C 1120.238281 419.769531 1117.9375 420.40625 1115.625 420.984375 C 1113.3125 421.5625 1110.984375 422.085938 1108.648438 422.550781 C 1106.308594 423.015625 1103.957031 423.425781 1101.597656 423.773438 C 1099.242188 424.125 1096.875 424.417969 1094.5 424.652344 C 1092.128906 424.882812 1089.75 425.058594 1087.367188 425.175781 C 1084.984375 425.292969 1082.601562 425.351562 1080.214844 425.351562 C 1077.832031 425.351562 1075.449219 425.292969 1073.066406 425.175781 C 1070.683594 425.058594 1068.304688 424.882812 1065.933594 424.652344 C 1063.558594 424.417969 1061.191406 424.125 1058.832031 423.773438 C 1056.476562 423.425781 1054.125 423.015625 1051.785156 422.550781 C 1049.449219 422.085938 1047.121094 421.5625 1044.808594 420.984375 C 1042.492188 420.40625 1040.195312 419.769531 1037.914062 419.078125 C 1035.632812 418.382812 1033.367188 417.636719 1031.121094 416.832031 C 1028.875 416.03125 1026.652344 415.171875 1024.449219 414.257812 C 1022.246094 413.347656 1020.066406 412.378906 1017.910156 411.359375 C 1015.753906 410.339844 1013.625 409.269531 1011.519531 408.144531 C 1009.417969 407.019531 1007.34375 405.84375 1005.296875 404.617188 C 1003.25 403.394531 1001.238281 402.117188 999.253906 400.792969 C 997.269531 399.46875 995.320312 398.09375 993.40625 396.671875 C 991.492188 395.253906 989.609375 393.785156 987.765625 392.273438 C 985.921875 390.761719 984.117188 389.203125 982.351562 387.601562 C 980.585938 386 978.855469 384.355469 977.171875 382.667969 C 975.484375 380.984375 973.839844 379.257812 972.238281 377.488281 C 970.636719 375.722656 969.078125 373.917969 967.566406 372.074219 C 966.054688 370.230469 964.585938 368.347656 963.167969 366.433594 C 961.746094 364.519531 960.371094 362.570312 959.046875 360.585938 C 957.722656 358.601562 956.445312 356.589844 955.222656 354.542969 C 953.996094 352.496094 952.820312 350.421875 951.695312 348.320312 C 950.570312 346.214844 949.5 344.085938 948.480469 341.929688 C 947.460938 339.773438 946.492188 337.59375 945.582031 335.390625 C 944.667969 333.1875 943.808594 330.964844 943.007812 328.71875 C 942.203125 326.472656 941.457031 324.207031 940.761719 321.925781 C 940.070312 319.644531 939.433594 317.347656 938.855469 315.03125 C 938.277344 312.71875 937.753906 310.394531 937.289062 308.054688 C 936.824219 305.714844 936.414062 303.367188 936.066406 301.007812 C 935.714844 298.648438 935.421875 296.28125 935.191406 293.90625 C 934.957031 291.535156 934.78125 289.15625 934.664062 286.773438 C 934.546875 284.390625 934.488281 282.007812 934.488281 279.625 C 934.488281 277.238281 934.546875 274.855469 934.664062 272.472656 C 934.78125 270.089844 934.957031 267.714844 935.191406 265.339844 C 935.421875 262.964844 935.714844 260.601562 936.066406 258.242188 C 936.414062 255.882812 936.824219 253.53125 937.289062 251.191406 C 937.753906 248.855469 938.277344 246.527344 938.855469 244.214844 C 939.433594 241.902344 940.070312 239.601562 940.761719 237.320312 C 941.457031 235.039062 942.203125 232.773438 943.007812 230.527344 C 943.808594 228.285156 944.667969 226.058594 945.582031 223.855469 C 946.492188 221.652344 947.460938 219.472656 948.480469 217.316406 C 949.5 215.160156 950.570312 213.03125 951.695312 210.925781 C 952.820312 208.824219 953.996094 206.75 955.222656 204.703125 C 956.445312 202.660156 957.722656 200.644531 959.046875 198.660156 C 960.371094 196.679688 961.746094 194.730469 963.167969 192.8125 C 964.585938 190.898438 966.054688 189.019531 967.566406 187.175781 C 969.078125 185.332031 970.636719 183.523438 972.238281 181.757812 C 973.839844 179.992188 975.484375 178.265625 977.171875 176.578125 C 978.855469 174.890625 980.585938 173.246094 982.351562 171.644531 C 984.117188 170.042969 985.921875 168.488281 987.765625 166.972656 C 989.609375 165.460938 991.492188 163.992188 993.40625 162.574219 C 995.320312 161.152344 997.269531 159.78125 999.253906 158.453125 C 1001.238281 157.128906 1003.25 155.855469 1005.296875 154.628906 C 1007.34375 153.402344 1009.417969 152.226562 1011.519531 151.101562 C 1013.625 149.976562 1015.753906 148.90625 1017.910156 147.886719 C 1020.066406 146.867188 1022.246094 145.898438 1024.449219 144.988281 C 1026.652344 144.074219 1028.875 143.21875 1031.121094 142.414062 C 1033.367188 141.609375 1035.632812 140.863281 1037.914062 140.167969 C 1040.195312 139.476562 1042.492188 138.839844 1044.808594 138.261719 C 1047.121094 137.683594 1049.449219 137.160156 1051.785156 136.695312 C 1054.125 136.230469 1056.476562 135.820312 1058.832031 135.472656 C 1061.191406 135.121094 1063.558594 134.832031 1065.933594 134.597656 C 1068.304688 134.363281 1070.683594 134.1875 1073.066406 134.070312 C 1075.449219 133.953125 1077.832031 133.894531 1080.214844 133.894531 C 1082.601562 133.894531 1084.984375 133.953125 1087.367188 134.070312 C 1089.75 134.1875 1092.128906 134.363281 1094.5 134.597656 C 1096.875 134.832031 1099.242188 135.121094 1101.597656 135.472656 C 1103.957031 135.820312 1106.308594 136.230469 1108.648438 136.695312 C 1110.984375 137.160156 1113.3125 137.683594 1115.625 138.261719 C 1117.9375 138.839844 1120.238281 139.476562 1122.519531 140.167969 C 1124.800781 140.863281 1127.066406 141.609375 1129.3125 142.414062 C 1131.558594 143.21875 1133.78125 144.074219 1135.984375 144.988281 C 1138.1875 145.898438 1140.367188 146.867188 1142.523438 147.886719 C 1144.679688 148.90625 1146.808594 149.976562 1148.914062 151.101562 C 1151.015625 152.226562 1153.089844 153.402344 1155.136719 154.628906 C 1157.183594 155.855469 1159.195312 157.128906 1161.179688 158.453125 C 1163.160156 159.78125 1165.113281 161.152344 1167.027344 162.574219 C 1168.941406 163.992188 1170.824219 165.460938 1172.664062 166.972656 C 1174.507812 168.488281 1176.316406 170.042969 1178.082031 171.644531 C 1179.847656 173.246094 1181.574219 174.890625 1183.261719 176.578125 C 1184.949219 178.265625 1186.59375 179.992188 1188.195312 181.757812 C 1189.796875 183.523438 1191.351562 185.332031 1192.867188 187.175781 C 1194.378906 189.019531 1195.847656 190.898438 1197.265625 192.8125 C 1198.6875 194.730469 1200.058594 196.679688 1201.386719 198.660156 C 1202.710938 200.644531 1203.984375 202.660156 1205.210938 204.703125 C 1206.4375 206.75 1207.613281 208.824219 1208.738281 210.925781 C 1209.863281 213.03125 1210.933594 215.160156 1211.953125 217.316406 C 1212.972656 219.472656 1213.941406 221.652344 1214.851562 223.855469 C 1215.765625 226.058594 1216.621094 228.285156 1217.425781 230.527344 C 1218.230469 232.773438 1218.976562 235.039062 1219.671875 237.320312 C 1220.363281 239.601562 1221 241.902344 1221.578125 244.214844 C 1222.15625 246.527344 1222.679688 248.855469 1223.144531 251.191406 C 1223.609375 253.53125 1224.019531 255.882812 1224.367188 258.242188 C 1224.71875 260.601562 1225.011719 262.964844 1225.242188 265.339844 C 1225.476562 267.714844 1225.652344 270.089844 1225.769531 272.472656 C 1225.886719 274.855469 1225.945312 277.238281 1225.945312 279.625 Z M 1225.945312 279.625 " fill-opacity="1" fill-rule="nonzero"/></svg>