<svg xmlns="http://www.w3.org/2000/svg" xmlns:xlink="http://www.w3.org/1999/xlink" width="2000" zoomAndPan="magnify" viewBox="0 0 1500 1499.999933" height="2000" preserveAspectRatio="xMidYMid meet" version="1.0"><path fill="#096088" d="M 673.035156 194.566406 C 709.082031 224.734375 707.710938 283.671875 669.421875 311.332031 C 646.296875 328.039062 618.65625 327.203125 592.949219 316.976562 L 587.695312 318.523438 C 540.949219 356.09375 491.066406 389.304688 435.878906 413.46875 C 414.722656 422.738281 392.488281 429.488281 371.246094 438.445312 C 357.804688 444.117188 348.949219 451.710938 352.277344 468.097656 C 354.632812 479.691406 376.875 486.441406 386.5 491.085938 C 443.371094 518.515625 497.253906 548.074219 550.097656 582.375 C 585.949219 605.636719 628.570312 648.171875 670.800781 610.453125 C 676.722656 605.167969 680.851562 598.058594 685.726562 591.824219 C 723.855469 543.019531 758.613281 493.511719 801.5 448.253906 C 847.089844 400.136719 900.070312 359.910156 955.578125 323.894531 C 956.25 324.527344 957.160156 325.152344 957.59375 325.980469 C 959.921875 330.339844 961.585938 336.046875 964.1875 340.757812 C 966.789062 345.464844 970.394531 349.96875 972.914062 354.519531 L 971.808594 356.414062 L 932.324219 381.773438 C 855.914062 436.328125 792.976562 507.914062 738.238281 583.496094 C 726.191406 600.136719 700.886719 633.15625 699.527344 652.992188 C 697.292969 685.476562 744.425781 717.375 766.136719 736.96875 C 772.09375 742.339844 778.417969 748.003906 784.3125 753.585938 C 811.953125 779.734375 844.585938 825.15625 885.957031 825.019531 C 912.445312 824.929688 953.300781 797.875 976.472656 784.367188 C 1071.300781 729.089844 1160.242188 665.339844 1238.804688 588.480469 C 1245.664062 581.003906 1238.1875 572.71875 1235.808594 564.71875 C 1218.75 507.488281 1280.226562 456.265625 1334.25 480.757812 C 1390.992188 506.488281 1390.082031 588.054688 1332.878906 612.9375 C 1314.351562 621 1299.582031 619.945312 1280.394531 615.253906 C 1277.847656 614.628906 1273.910156 612.367188 1271.089844 612.101562 C 1264.726562 611.511719 1249.664062 628.585938 1244.734375 633.011719 C 1166.625 703.03125 1079.996094 764.820312 990.574219 818.621094 C 977.621094 826.417969 963.863281 833.195312 950.992188 841.066406 C 925.890625 856.421875 904.371094 874.554688 931.066406 902.523438 C 944.316406 916.410156 960.363281 929.382812 974.660156 942.191406 C 1000.699219 965.519531 1027.125 988.625 1053.9375 1011.117188 C 1096.667969 1046.960938 1140.648438 1092.925781 1190.945312 1036.910156 C 1211.3125 1014.226562 1230.59375 987.578125 1250.261719 963.882812 C 1255.0625 958.097656 1266.304688 947.339844 1269.414062 941.6875 C 1274.011719 933.328125 1264.753906 923.8125 1262.289062 915.289062 C 1244.671875 854.390625 1306.746094 803.734375 1363.195312 832.300781 C 1422.21875 862.175781 1411.863281 949.539062 1346.910156 964.730469 C 1330.699219 968.515625 1323.746094 964.425781 1309.089844 962.917969 C 1301.84375 962.171875 1299.601562 963.304688 1294.691406 968.34375 C 1278.242188 985.214844 1261.359375 1008.964844 1246.417969 1027.585938 C 1235.484375 1041.203125 1223.863281 1054.351562 1213.417969 1068.355469 C 1211.613281 1070.773438 1207.714844 1076.191406 1207.46875 1078.976562 C 1207.0625 1083.546875 1212.679688 1092.648438 1214.0625 1097.917969 C 1220.101562 1120.96875 1212.867188 1150.917969 1195.101562 1167.210938 C 1172.839844 1187.617188 1146.726562 1190.375 1118.808594 1180.074219 C 1107.960938 1176.074219 1102.535156 1169.96875 1090.414062 1175.5625 C 1079.042969 1180.800781 1063.628906 1193.710938 1052.355469 1200.921875 C 1014.585938 1225.078125 975.578125 1247.539062 935.691406 1268.292969 C 925.050781 1273.828125 913.640625 1278.175781 903.683594 1284.871094 C 904.261719 1301.558594 901.183594 1317.421875 892.105469 1331.554688 C 860.53125 1380.710938 778.804688 1365.519531 768.269531 1307.289062 C 757.445312 1247.503906 820.808594 1207.300781 872.410156 1237.609375 C 883.921875 1244.367188 884.621094 1251.824219 899.847656 1245.5625 C 913.660156 1239.878906 930.828125 1230.308594 944.335938 1223.191406 C 974.679688 1207.203125 1007.171875 1188.664062 1035.511719 1169.621094 C 1049.25 1160.390625 1080.464844 1139.414062 1085.835938 1124.144531 C 1096.980469 1092.464844 1069.957031 1073.789062 1049.882812 1055.660156 C 1013.507812 1022.804688 975.929688 990.519531 938.625 958.382812 C 923.609375 945.457031 908.886719 930.816406 892.632812 919.453125 C 849.066406 889.015625 813.792969 912.152344 773.566406 933.871094 C 664.464844 992.765625 550.253906 1069.046875 474.113281 1167.921875 C 471.894531 1170.789062 465.007812 1179.46875 464.484375 1182.421875 C 463.179688 1189.785156 466.296875 1190.59375 468.851562 1195.882812 C 481.320312 1221.636719 473.625 1256.375 452.734375 1275.4375 C 422.207031 1303.289062 374.914062 1300.972656 349.042969 1268.136719 C 322.640625 1234.628906 334.421875 1182.4375 372.636719 1163.636719 C 390.472656 1154.863281 401.617188 1156.25 420.679688 1157.898438 C 428.605469 1158.578125 433.101562 1157.558594 438.601562 1151.710938 C 458.921875 1130.09375 479.222656 1106.203125 498.257812 1083.328125 C 517.292969 1060.449219 554.457031 1021.304688 550.449219 991.605469 C 548.214844 975.0625 538.972656 962.597656 523.671875 956.351562 C 500.445312 946.871094 471.003906 940.976562 446.527344 932.867188 C 371.46875 908.003906 299.628906 874.453125 229.460938 838.378906 C 217.296875 835.648438 209.515625 844.457031 198.859375 848.550781 C 134.953125 873.082031 77.171875 801.832031 108.792969 742.625 C 131.535156 700.058594 189.792969 689.449219 223.914062 725.363281 C 243.839844 746.328125 246.691406 765.886719 243.179688 793.601562 C 242.5625 798.484375 243.566406 802.714844 247.382812 805.988281 C 322.984375 847.640625 402.738281 883.410156 485.851562 907.332031 C 513.363281 915.261719 559.21875 931.597656 574.878906 896.457031 C 580.996094 882.738281 582.585938 866.671875 585.820312 852.257812 C 594.871094 811.890625 604.789062 770.898438 612.136719 730.375 C 620.78125 682.738281 591.253906 658.011719 556.472656 632.007812 C 514.488281 600.625 464.675781 571.175781 418.058594 547.101562 C 396.542969 535.992188 367.367188 520.722656 344.664062 513.660156 C 323.394531 507.039062 318.484375 519.847656 300.296875 525.375 C 260.042969 537.601562 216.625 512.1875 206.839844 471.582031 C 199.621094 441.625 211.824219 406.980469 238.046875 390.070312 C 266.882812 371.476562 304.425781 374.472656 329.730469 397.628906 C 336.5625 403.878906 336.316406 410.261719 347.460938 408.496094 C 352.121094 407.761719 357.28125 404.9375 361.65625 403.394531 C 426.527344 380.488281 489.457031 351.238281 543.195312 308.003906 C 546.6875 305.191406 557.796875 296.445312 559.441406 293.0625 C 562.605469 286.5625 555.972656 276.832031 554.246094 270.3125 C 535.800781 200.714844 617.34375 147.984375 673.035156 194.601562 Z M 752.304688 773.566406 C 736.859375 759.644531 710.890625 734.542969 690.054688 731.398438 C 647.242188 724.933594 643.53125 767.964844 636.496094 798.132812 C 624.707031 848.6875 613.460938 899.589844 602.867188 950.613281 C 601.09375 959.175781 595.851562 971.945312 601.371094 980.003906 C 607.789062 989.371094 619.59375 984.277344 627.492188 980.058594 C 649.847656 968.121094 672.925781 950.855469 695.195312 937.476562 C 724.832031 919.671875 756.664062 903.710938 785.628906 885.230469 C 802.8125 874.257812 825.828125 859.953125 811.78125 836.449219 C 800.394531 817.414062 769.417969 788.976562 752.316406 773.566406 Z M 752.304688 773.566406 " fill-opacity="1" fill-rule="nonzero"/><path fill="#febf2f" d="M 1226.261719 279.683594 C 1226.261719 282.070312 1226.203125 284.453125 1226.085938 286.835938 C 1225.96875 289.21875 1225.792969 291.597656 1225.558594 293.972656 C 1225.328125 296.34375 1225.035156 298.710938 1224.683594 301.070312 C 1224.335938 303.429688 1223.925781 305.78125 1223.460938 308.121094 C 1222.996094 310.460938 1222.472656 312.789062 1221.894531 315.101562 C 1221.3125 317.414062 1220.679688 319.714844 1219.984375 321.996094 C 1219.292969 324.28125 1218.542969 326.542969 1217.742188 328.789062 C 1216.9375 331.035156 1216.078125 333.261719 1215.167969 335.464844 C 1214.253906 337.671875 1213.285156 339.851562 1212.265625 342.007812 C 1211.246094 344.164062 1210.175781 346.292969 1209.050781 348.398438 C 1207.925781 350.5 1206.75 352.578125 1205.523438 354.621094 C 1204.296875 356.667969 1203.019531 358.683594 1201.695312 360.667969 C 1200.371094 362.652344 1198.996094 364.601562 1197.578125 366.515625 C 1196.15625 368.433594 1194.6875 370.3125 1193.175781 372.15625 C 1191.660156 374 1190.101562 375.808594 1188.5 377.574219 C 1186.898438 379.34375 1185.253906 381.070312 1183.566406 382.757812 C 1181.882812 384.445312 1180.152344 386.089844 1178.386719 387.691406 C 1176.617188 389.292969 1174.8125 390.851562 1172.96875 392.363281 C 1171.125 393.875 1169.246094 395.34375 1167.328125 396.765625 C 1165.410156 398.1875 1163.460938 399.558594 1161.480469 400.886719 C 1159.496094 402.210938 1157.480469 403.484375 1155.433594 404.710938 C 1153.386719 405.9375 1151.3125 407.113281 1149.207031 408.238281 C 1147.105469 409.363281 1144.972656 410.4375 1142.816406 411.457031 C 1140.660156 412.476562 1138.480469 413.441406 1136.277344 414.355469 C 1134.074219 415.269531 1131.847656 416.125 1129.601562 416.929688 C 1127.355469 417.734375 1125.089844 418.480469 1122.808594 419.175781 C 1120.527344 419.867188 1118.226562 420.503906 1115.914062 421.082031 C 1113.597656 421.664062 1111.273438 422.183594 1108.933594 422.652344 C 1106.59375 423.117188 1104.242188 423.523438 1101.882812 423.875 C 1099.523438 424.222656 1097.15625 424.515625 1094.78125 424.75 C 1092.40625 424.984375 1090.03125 425.160156 1087.648438 425.277344 C 1085.265625 425.394531 1082.878906 425.453125 1080.492188 425.453125 C 1078.109375 425.453125 1075.722656 425.394531 1073.339844 425.277344 C 1070.957031 425.160156 1068.582031 424.984375 1066.207031 424.75 C 1063.832031 424.515625 1061.464844 424.222656 1059.105469 423.875 C 1056.746094 423.523438 1054.394531 423.117188 1052.054688 422.652344 C 1049.714844 422.183594 1047.390625 421.664062 1045.074219 421.082031 C 1042.761719 420.503906 1040.460938 419.867188 1038.179688 419.175781 C 1035.898438 418.480469 1033.632812 417.734375 1031.386719 416.929688 C 1029.140625 416.125 1026.914062 415.269531 1024.710938 414.355469 C 1022.507812 413.441406 1020.328125 412.476562 1018.171875 411.457031 C 1016.011719 410.4375 1013.882812 409.363281 1011.78125 408.238281 C 1009.675781 407.113281 1007.601562 405.9375 1005.554688 404.710938 C 1003.507812 403.484375 1001.492188 402.210938 999.507812 400.886719 C 997.527344 399.558594 995.574219 398.1875 993.660156 396.765625 C 991.742188 395.34375 989.863281 393.875 988.019531 392.363281 C 986.175781 390.851562 984.371094 389.292969 982.601562 387.691406 C 980.835938 386.089844 979.105469 384.445312 977.421875 382.757812 C 975.734375 381.070312 974.089844 379.34375 972.488281 377.574219 C 970.882812 375.808594 969.328125 374 967.8125 372.15625 C 966.300781 370.3125 964.832031 368.433594 963.410156 366.515625 C 961.992188 364.601562 960.617188 362.652344 959.292969 360.667969 C 957.964844 358.683594 956.691406 356.667969 955.464844 354.621094 C 954.238281 352.578125 953.0625 350.5 951.9375 348.398438 C 950.8125 346.292969 949.742188 344.164062 948.722656 342.007812 C 947.699219 339.851562 946.734375 337.671875 945.820312 335.464844 C 944.910156 333.261719 944.050781 331.035156 943.246094 328.789062 C 942.441406 326.542969 941.695312 324.28125 941.003906 321.996094 C 940.308594 319.714844 939.671875 317.414062 939.09375 315.101562 C 938.515625 312.789062 937.992188 310.460938 937.527344 308.121094 C 937.0625 305.78125 936.652344 303.429688 936.304688 301.070312 C 935.953125 298.710938 935.660156 296.34375 935.425781 293.972656 C 935.195312 291.597656 935.019531 289.21875 934.902344 286.835938 C 934.785156 284.453125 934.726562 282.070312 934.726562 279.683594 C 934.726562 277.296875 934.785156 274.914062 934.902344 272.53125 C 935.019531 270.148438 935.195312 267.769531 935.425781 265.394531 C 935.660156 263.019531 935.953125 260.652344 936.304688 258.292969 C 936.652344 255.933594 937.0625 253.585938 937.527344 251.246094 C 937.992188 248.90625 938.515625 246.578125 939.09375 244.265625 C 939.671875 241.949219 940.308594 239.652344 941.003906 237.367188 C 941.695312 235.085938 942.441406 232.820312 943.246094 230.574219 C 944.050781 228.328125 944.910156 226.105469 945.820312 223.898438 C 946.734375 221.695312 947.699219 219.515625 948.722656 217.359375 C 949.742188 215.203125 950.8125 213.074219 951.9375 210.96875 C 953.0625 208.863281 954.238281 206.789062 955.464844 204.742188 C 956.691406 202.695312 957.964844 200.683594 959.292969 198.699219 C 960.617188 196.714844 961.992188 194.765625 963.410156 192.847656 C 964.832031 190.933594 966.300781 189.050781 967.8125 187.207031 C 969.328125 185.363281 970.882812 183.558594 972.488281 181.792969 C 974.089844 180.023438 975.734375 178.296875 977.421875 176.609375 C 979.105469 174.921875 980.835938 173.277344 982.601562 171.675781 C 984.371094 170.074219 986.175781 168.515625 988.019531 167.003906 C 989.863281 165.488281 991.742188 164.023438 993.660156 162.601562 C 995.574219 161.179688 997.527344 159.804688 999.507812 158.480469 C 1001.492188 157.15625 1003.507812 155.878906 1005.554688 154.652344 C 1007.601562 153.425781 1009.675781 152.25 1011.777344 151.125 C 1013.882812 150.003906 1016.011719 148.929688 1018.167969 147.910156 C 1020.328125 146.890625 1022.507812 145.921875 1024.710938 145.011719 C 1026.914062 144.097656 1029.140625 143.238281 1031.386719 142.4375 C 1033.632812 141.632812 1035.898438 140.882812 1038.179688 140.191406 C 1040.460938 139.5 1042.761719 138.863281 1045.074219 138.285156 C 1047.390625 137.703125 1049.714844 137.179688 1052.054688 136.714844 C 1054.394531 136.25 1056.746094 135.84375 1059.105469 135.492188 C 1061.464844 135.140625 1063.832031 134.851562 1066.207031 134.617188 C 1068.582031 134.382812 1070.957031 134.207031 1073.339844 134.089844 C 1075.722656 133.972656 1078.109375 133.914062 1080.492188 133.914062 C 1082.878906 133.914062 1085.265625 133.972656 1087.648438 134.089844 C 1090.03125 134.207031 1092.40625 134.382812 1094.78125 134.617188 C 1097.15625 134.851562 1099.523438 135.140625 1101.882812 135.492188 C 1104.242188 135.84375 1106.59375 136.25 1108.933594 136.714844 C 1111.273438 137.179688 1113.597656 137.703125 1115.914062 138.285156 C 1118.226562 138.863281 1120.527344 139.5 1122.808594 140.191406 C 1125.089844 140.882812 1127.355469 141.632812 1129.601562 142.4375 C 1131.847656 143.238281 1134.074219 144.097656 1136.277344 145.011719 C 1138.480469 145.921875 1140.660156 146.890625 1142.816406 147.910156 C 1144.972656 148.929688 1147.105469 150.003906 1149.207031 151.125 C 1151.3125 152.25 1153.386719 153.425781 1155.433594 154.652344 C 1157.480469 155.878906 1159.496094 157.15625 1161.480469 158.480469 C 1163.460938 159.804688 1165.410156 161.179688 1167.328125 162.601562 C 1169.246094 164.023438 1171.125 165.488281 1172.96875 167.003906 C 1174.8125 168.515625 1176.617188 170.074219 1178.386719 171.675781 C 1180.152344 173.277344 1181.882812 174.921875 1183.566406 176.609375 C 1185.253906 178.296875 1186.898438 180.023438 1188.5 181.792969 C 1190.101562 183.558594 1191.660156 185.363281 1193.175781 187.207031 C 1194.6875 189.050781 1196.15625 190.933594 1197.574219 192.847656 C 1198.996094 194.765625 1200.371094 196.714844 1201.695312 198.699219 C 1203.019531 200.683594 1204.296875 202.695312 1205.523438 204.742188 C 1206.75 206.789062 1207.925781 208.863281 1209.050781 210.96875 C 1210.175781 213.074219 1211.246094 215.203125 1212.265625 217.359375 C 1213.285156 219.515625 1214.253906 221.695312 1215.167969 223.898438 C 1216.078125 226.105469 1216.9375 228.328125 1217.742188 230.574219 C 1218.542969 232.820312 1219.292969 235.085938 1219.984375 237.367188 C 1220.679688 239.652344 1221.3125 241.949219 1221.894531 244.265625 C 1222.472656 246.578125 1222.996094 248.90625 1223.460938 251.246094 C 1223.925781 253.585938 1224.335938 255.933594 1224.683594 258.292969 C 1225.035156 260.652344 1225.328125 263.019531 1225.558594 265.394531 C 1225.792969 267.769531 1225.96875 270.148438 1226.085938 272.53125 C 1226.203125 274.914062 1226.261719 277.296875 1226.261719 279.683594 Z M 1226.261719 279.683594 " fill-opacity="1" fill-rule="nonzero"/></svg>