<svg xmlns="http://www.w3.org/2000/svg" xmlns:xlink="http://www.w3.org/1999/xlink" width="2000" zoomAndPan="magnify" viewBox="0 0 1500 1499.999933" height="2000" preserveAspectRatio="xMidYMid meet" version="1.0"><defs><clipPath id="751277ea7b"><path d="M 1.355469 1 L 1434 1 L 1434 1275 L 1.355469 1275 Z M 1.355469 1 " clip-rule="nonzero"/></clipPath><clipPath id="c8a55b0525"><rect x="0" width="1437" y="0" height="1276"/></clipPath></defs><g transform="matrix(1, 0, 0, 1, 35, 106)"><g clip-path="url(#c8a55b0525)"><g clip-path="url(#751277ea7b)"><path fill="#f2f6f5" d="M 1169.183594 158.183594 L 1160.445312 152.21875 C 1092.386719 106.929688 1011.085938 70.433594 916.539062 42.722656 C 830.6875 14.371094 744.101562 0.660156 656.785156 1.59375 C 514.679688 9.699219 375.644531 76.175781 239.683594 201.023438 C 176.84375 267.402344 119.992188 356.074219 69.132812 467.039062 C 26.742188 558.195312 4.203125 638.265625 1.511719 707.25 C 3.058594 896.40625 75.480469 1040.582031 218.769531 1139.78125 C 323.527344 1202.328125 417.492188 1240.78125 500.660156 1255.140625 C 600.261719 1277.035156 722.398438 1280.011719 867.078125 1264.070312 C 922.105469 1258.109375 977.769531 1237.449219 1034.070312 1202.089844 C 1179.191406 1105.601562 1270.238281 1035.378906 1307.210938 991.429688 C 1412.394531 873.515625 1452.039062 735.382812 1426.144531 577.039062 C 1392.59375 409.183594 1306.941406 269.566406 1169.183594 158.183594 " fill-opacity="1" fill-rule="nonzero"/></g><path fill="#096088" d="M 628.730469 196.742188 C 659.1875 222.234375 658.027344 272.035156 625.675781 295.40625 C 606.136719 309.523438 582.78125 308.816406 561.058594 300.175781 L 556.621094 301.480469 C 517.125 333.226562 474.976562 361.289062 428.34375 381.707031 C 410.464844 389.539062 391.679688 395.242188 373.730469 402.808594 C 362.375 407.601562 354.890625 414.019531 357.703125 427.863281 C 359.691406 437.664062 378.488281 443.363281 386.621094 447.289062 C 434.675781 470.464844 480.203125 495.441406 524.855469 524.421875 C 555.148438 544.078125 591.15625 580.019531 626.84375 548.152344 C 631.847656 543.683594 635.335938 537.675781 639.453125 532.410156 C 671.671875 491.171875 701.039062 449.339844 737.277344 411.097656 C 775.796875 370.441406 820.5625 336.449219 867.46875 306.019531 C 868.035156 306.554688 868.804688 307.082031 869.167969 307.78125 C 871.132812 311.464844 872.539062 316.289062 874.738281 320.265625 C 876.9375 324.246094 879.984375 328.050781 882.113281 331.898438 L 881.179688 333.5 L 847.820312 354.925781 C 783.253906 401.023438 730.074219 461.507812 683.824219 525.371094 C 673.644531 539.433594 652.265625 567.332031 651.113281 584.089844 C 649.226562 611.539062 689.050781 638.492188 707.394531 655.050781 C 712.429688 659.585938 717.773438 664.371094 722.753906 669.089844 C 746.109375 691.183594 773.683594 729.566406 808.636719 729.449219 C 831.019531 729.371094 865.539062 706.511719 885.121094 695.101562 C 965.246094 648.390625 1040.398438 594.527344 1106.78125 529.582031 C 1112.574219 523.265625 1106.257812 516.265625 1104.246094 509.503906 C 1089.835938 461.148438 1141.78125 417.867188 1187.425781 438.5625 C 1235.371094 460.300781 1234.601562 529.222656 1186.269531 550.25 C 1170.613281 557.0625 1158.136719 556.167969 1141.921875 552.207031 C 1139.769531 551.679688 1136.441406 549.765625 1134.058594 549.542969 C 1128.679688 549.042969 1115.957031 563.472656 1111.789062 567.207031 C 1045.789062 626.371094 972.59375 678.582031 897.039062 724.042969 C 886.089844 730.628906 874.46875 736.355469 863.589844 743.007812 C 842.378906 755.980469 824.199219 771.300781 846.753906 794.9375 C 857.949219 806.667969 871.507812 817.632812 883.589844 828.453125 C 905.59375 848.164062 927.921875 867.6875 950.578125 886.691406 C 986.679688 916.976562 1023.839844 955.816406 1066.339844 908.484375 C 1083.550781 889.320312 1099.839844 866.804688 1116.460938 846.78125 C 1120.515625 841.894531 1130.019531 832.804688 1132.644531 828.027344 C 1136.527344 820.964844 1128.703125 812.921875 1126.621094 805.71875 C 1111.738281 754.265625 1164.1875 711.460938 1211.882812 735.601562 C 1261.753906 760.84375 1253.007812 834.660156 1198.125 847.496094 C 1184.425781 850.699219 1178.554688 847.238281 1166.167969 845.964844 C 1160.046875 845.335938 1158.152344 846.292969 1154 850.550781 C 1140.101562 864.808594 1125.835938 884.875 1113.210938 900.609375 C 1103.976562 912.113281 1094.15625 923.222656 1085.328125 935.058594 C 1083.804688 937.101562 1080.511719 941.675781 1080.300781 944.03125 C 1079.960938 947.890625 1084.707031 955.585938 1085.871094 960.035156 C 1090.976562 979.511719 1084.863281 1004.820312 1069.851562 1018.585938 C 1051.042969 1035.824219 1028.976562 1038.15625 1005.390625 1029.457031 C 996.222656 1026.074219 991.636719 1020.917969 981.398438 1025.640625 C 971.785156 1030.070312 958.765625 1040.976562 949.238281 1047.066406 C 917.324219 1067.476562 884.367188 1086.457031 850.664062 1103.996094 C 841.671875 1108.671875 832.03125 1112.347656 823.617188 1118.003906 C 824.105469 1132.105469 821.503906 1145.507812 813.835938 1157.449219 C 787.15625 1198.984375 718.101562 1186.148438 709.199219 1136.945312 C 700.054688 1086.429688 753.59375 1052.460938 797.195312 1078.066406 C 806.921875 1083.777344 807.511719 1090.078125 820.378906 1084.789062 C 832.046875 1079.988281 846.550781 1071.898438 857.964844 1065.886719 C 883.605469 1052.375 911.0625 1036.710938 935.007812 1020.621094 C 946.613281 1012.820312 972.992188 995.097656 977.527344 982.195312 C 986.945312 955.429688 964.109375 939.648438 947.148438 924.328125 C 916.414062 896.566406 884.660156 869.289062 853.140625 842.136719 C 840.453125 831.210938 828.015625 818.84375 814.277344 809.238281 C 777.46875 783.523438 747.664062 803.070312 713.671875 821.421875 C 621.488281 871.183594 524.984375 935.640625 460.648438 1019.183594 C 458.777344 1021.609375 452.957031 1028.941406 452.511719 1031.4375 C 451.410156 1037.660156 454.042969 1038.34375 456.203125 1042.8125 C 466.738281 1064.574219 460.234375 1093.925781 442.585938 1110.03125 C 416.789062 1133.566406 376.832031 1131.605469 354.96875 1103.863281 C 332.664062 1075.550781 342.617188 1031.453125 374.90625 1015.5625 C 389.976562 1008.152344 399.394531 1009.324219 415.5 1010.714844 C 422.199219 1011.289062 425.996094 1010.429688 430.644531 1005.488281 C 447.8125 987.222656 464.96875 967.035156 481.050781 947.707031 C 497.132812 928.375 528.535156 895.300781 525.148438 870.207031 C 523.261719 856.230469 515.453125 845.695312 502.523438 840.417969 C 482.898438 832.410156 458.023438 827.429688 437.339844 820.574219 C 373.917969 799.566406 313.214844 771.21875 253.929688 740.738281 C 243.648438 738.429688 237.078125 745.875 228.070312 749.332031 C 174.074219 770.058594 125.253906 709.855469 151.972656 659.828125 C 171.183594 623.863281 220.410156 614.898438 249.242188 645.246094 C 266.078125 662.957031 268.488281 679.484375 265.519531 702.902344 C 265 707.027344 265.847656 710.601562 269.070312 713.367188 C 332.949219 748.5625 400.34375 778.785156 470.570312 799 C 493.816406 805.699219 532.5625 819.503906 545.792969 789.808594 C 550.960938 778.21875 552.304688 764.644531 555.039062 752.460938 C 562.683594 718.355469 571.066406 683.71875 577.273438 649.480469 C 584.578125 609.226562 559.628906 588.332031 530.238281 566.363281 C 494.761719 539.84375 452.675781 514.960938 413.285156 494.621094 C 395.105469 485.234375 370.453125 472.328125 351.269531 466.363281 C 333.300781 460.769531 329.152344 471.589844 313.785156 476.261719 C 279.769531 486.59375 243.082031 465.121094 234.816406 430.808594 C 228.71875 405.496094 239.027344 376.222656 261.183594 361.933594 C 285.550781 346.226562 317.273438 348.757812 338.652344 368.320312 C 344.425781 373.605469 344.214844 378.996094 353.632812 377.503906 C 357.570312 376.882812 361.929688 374.496094 365.628906 373.191406 C 420.441406 353.839844 473.613281 329.125 519.019531 292.59375 C 521.972656 290.214844 531.355469 282.828125 532.746094 279.96875 C 535.421875 274.476562 529.820312 266.253906 528.359375 260.746094 C 512.773438 201.941406 581.671875 157.382812 628.730469 196.773438 Z M 695.710938 685.972656 C 682.65625 674.207031 660.71875 653 643.113281 650.339844 C 606.9375 644.878906 603.796875 681.238281 597.855469 706.730469 C 587.894531 749.445312 578.394531 792.457031 569.441406 835.570312 C 567.941406 842.804688 563.515625 853.59375 568.175781 860.402344 C 573.597656 868.320312 583.574219 864.015625 590.25 860.449219 C 609.136719 850.363281 628.636719 835.773438 647.453125 824.46875 C 672.496094 809.425781 699.394531 795.9375 723.867188 780.324219 C 738.386719 771.054688 757.832031 758.964844 745.960938 739.105469 C 736.34375 723.023438 710.167969 698.992188 695.71875 685.972656 Z M 695.710938 685.972656 " fill-opacity="1" fill-rule="nonzero"/><path fill="#febf2f" d="M 1096.183594 268.664062 C 1096.183594 270.679688 1096.132812 272.691406 1096.035156 274.707031 C 1095.933594 276.71875 1095.785156 278.730469 1095.589844 280.734375 C 1095.390625 282.742188 1095.144531 284.742188 1094.847656 286.734375 C 1094.554688 288.730469 1094.207031 290.714844 1093.816406 292.691406 C 1093.421875 294.667969 1092.980469 296.636719 1092.492188 298.589844 C 1092 300.546875 1091.464844 302.488281 1090.878906 304.417969 C 1090.292969 306.34375 1089.660156 308.257812 1088.980469 310.15625 C 1088.304688 312.054688 1087.578125 313.933594 1086.804688 315.796875 C 1086.035156 317.660156 1085.21875 319.5 1084.355469 321.324219 C 1083.496094 323.144531 1082.589844 324.945312 1081.640625 326.722656 C 1080.6875 328.5 1079.695312 330.253906 1078.660156 331.984375 C 1077.621094 333.710938 1076.542969 335.414062 1075.425781 337.089844 C 1074.304688 338.765625 1073.144531 340.414062 1071.945312 342.035156 C 1070.742188 343.652344 1069.503906 345.242188 1068.222656 346.800781 C 1066.945312 348.359375 1065.628906 349.882812 1064.277344 351.378906 C 1062.921875 352.871094 1061.53125 354.332031 1060.105469 355.753906 C 1058.683594 357.179688 1057.222656 358.570312 1055.730469 359.925781 C 1054.234375 361.277344 1052.710938 362.59375 1051.152344 363.871094 C 1049.59375 365.152344 1048.003906 366.390625 1046.386719 367.59375 C 1044.765625 368.792969 1043.117188 369.953125 1041.441406 371.074219 C 1039.765625 372.191406 1038.0625 373.269531 1036.335938 374.308594 C 1034.605469 375.34375 1032.851562 376.335938 1031.074219 377.289062 C 1029.296875 378.238281 1027.496094 379.144531 1025.675781 380.003906 C 1023.851562 380.867188 1022.011719 381.683594 1020.148438 382.457031 C 1018.285156 383.226562 1016.40625 383.953125 1014.507812 384.632812 C 1012.609375 385.308594 1010.695312 385.941406 1008.769531 386.527344 C 1006.839844 387.113281 1004.898438 387.648438 1002.941406 388.140625 C 1000.988281 388.628906 999.019531 389.070312 997.042969 389.464844 C 995.066406 389.859375 993.082031 390.203125 991.085938 390.496094 C 989.09375 390.792969 987.09375 391.039062 985.085938 391.238281 C 983.082031 391.433594 981.070312 391.582031 979.058594 391.683594 C 977.042969 391.78125 975.03125 391.832031 973.015625 391.832031 C 971 391.832031 968.984375 391.78125 966.972656 391.683594 C 964.957031 391.582031 962.949219 391.433594 960.941406 391.238281 C 958.9375 391.039062 956.9375 390.792969 954.941406 390.496094 C 952.949219 390.203125 950.960938 389.859375 948.984375 389.464844 C 947.007812 389.070312 945.042969 388.628906 943.085938 388.140625 C 941.132812 387.648438 939.191406 387.113281 937.261719 386.527344 C 935.332031 385.941406 933.417969 385.308594 931.519531 384.632812 C 929.621094 383.953125 927.742188 383.226562 925.878906 382.457031 C 924.019531 381.683594 922.175781 380.867188 920.351562 380.003906 C 918.53125 379.144531 916.730469 378.238281 914.953125 377.289062 C 913.175781 376.335938 911.421875 375.34375 909.695312 374.308594 C 907.964844 373.269531 906.261719 372.191406 904.585938 371.074219 C 902.910156 369.953125 901.261719 368.792969 899.644531 367.59375 C 898.023438 366.390625 896.4375 365.152344 894.878906 363.871094 C 893.320312 362.59375 891.792969 361.277344 890.300781 359.925781 C 888.804688 358.570312 887.347656 357.179688 885.921875 355.753906 C 884.496094 354.332031 883.105469 352.871094 881.753906 351.378906 C 880.398438 349.882812 879.082031 348.359375 877.804688 346.800781 C 876.527344 345.242188 875.285156 343.652344 874.085938 342.035156 C 872.882812 340.414062 871.722656 338.765625 870.605469 337.089844 C 869.484375 335.414062 868.40625 333.710938 867.371094 331.984375 C 866.332031 330.253906 865.339844 328.5 864.390625 326.722656 C 863.441406 324.945312 862.535156 323.144531 861.671875 321.324219 C 860.808594 319.5 859.992188 317.660156 859.222656 315.796875 C 858.449219 313.933594 857.726562 312.054688 857.046875 310.15625 C 856.367188 308.257812 855.734375 306.34375 855.148438 304.417969 C 854.566406 302.488281 854.027344 300.546875 853.539062 298.589844 C 853.046875 296.636719 852.605469 294.667969 852.214844 292.691406 C 851.820312 290.714844 851.476562 288.730469 851.179688 286.734375 C 850.882812 284.742188 850.636719 282.742188 850.441406 280.734375 C 850.242188 278.730469 850.09375 276.71875 849.996094 274.707031 C 849.894531 272.691406 849.847656 270.679688 849.847656 268.664062 C 849.847656 266.648438 849.894531 264.632812 849.996094 262.621094 C 850.09375 260.605469 850.242188 258.597656 850.441406 256.589844 C 850.636719 254.585938 850.882812 252.585938 851.179688 250.589844 C 851.476562 248.597656 851.820312 246.609375 852.214844 244.632812 C 852.605469 242.65625 853.046875 240.691406 853.539062 238.734375 C 854.027344 236.78125 854.566406 234.839844 855.148438 232.910156 C 855.734375 230.980469 856.367188 229.066406 857.046875 227.167969 C 857.726562 225.269531 858.449219 223.390625 859.222656 221.527344 C 859.992188 219.667969 860.808594 217.824219 861.671875 216.003906 C 862.535156 214.179688 863.441406 212.378906 864.390625 210.601562 C 865.339844 208.824219 866.332031 207.070312 867.371094 205.34375 C 868.40625 203.613281 869.484375 201.910156 870.605469 200.234375 C 871.722656 198.558594 872.882812 196.910156 874.085938 195.292969 C 875.285156 193.671875 876.527344 192.085938 877.804688 190.527344 C 879.082031 188.96875 880.398438 187.441406 881.753906 185.949219 C 883.105469 184.453125 884.496094 182.996094 885.921875 181.570312 C 887.347656 180.144531 888.804688 178.753906 890.300781 177.402344 C 891.792969 176.046875 893.320312 174.730469 894.878906 173.453125 C 896.4375 172.175781 898.023438 170.933594 899.644531 169.734375 C 901.261719 168.53125 902.910156 167.371094 904.585938 166.253906 C 906.261719 165.132812 907.964844 164.054688 909.695312 163.019531 C 911.421875 161.980469 913.175781 160.988281 914.953125 160.039062 C 916.730469 159.089844 918.53125 158.183594 920.351562 157.320312 C 922.175781 156.457031 924.019531 155.640625 925.878906 154.871094 C 927.742188 154.097656 929.621094 153.375 931.519531 152.695312 C 933.417969 152.015625 935.332031 151.382812 937.261719 150.796875 C 939.191406 150.214844 941.132812 149.675781 943.085938 149.1875 C 945.042969 148.695312 947.007812 148.253906 948.984375 147.863281 C 950.960938 147.46875 952.949219 147.125 954.941406 146.828125 C 956.9375 146.53125 958.9375 146.285156 960.941406 146.089844 C 962.949219 145.890625 964.957031 145.742188 966.972656 145.644531 C 968.984375 145.542969 971 145.496094 973.015625 145.496094 C 975.03125 145.496094 977.042969 145.542969 979.058594 145.644531 C 981.070312 145.742188 983.082031 145.890625 985.085938 146.089844 C 987.09375 146.285156 989.09375 146.53125 991.085938 146.828125 C 993.082031 147.125 995.066406 147.46875 997.042969 147.863281 C 999.019531 148.253906 1000.988281 148.695312 1002.941406 149.1875 C 1004.898438 149.675781 1006.839844 150.214844 1008.769531 150.796875 C 1010.695312 151.382812 1012.609375 152.015625 1014.507812 152.695312 C 1016.40625 153.375 1018.285156 154.097656 1020.148438 154.871094 C 1022.011719 155.640625 1023.851562 156.457031 1025.675781 157.320312 C 1027.496094 158.183594 1029.296875 159.089844 1031.074219 160.039062 C 1032.851562 160.988281 1034.605469 161.980469 1036.335938 163.019531 C 1038.0625 164.054688 1039.765625 165.132812 1041.441406 166.253906 C 1043.117188 167.371094 1044.765625 168.53125 1046.386719 169.734375 C 1048.003906 170.933594 1049.59375 172.175781 1051.152344 173.453125 C 1052.710938 174.730469 1054.234375 176.046875 1055.730469 177.402344 C 1057.222656 178.753906 1058.683594 180.144531 1060.105469 181.570312 C 1061.53125 182.996094 1062.921875 184.453125 1064.277344 185.949219 C 1065.628906 187.441406 1066.945312 188.96875 1068.222656 190.527344 C 1069.503906 192.085938 1070.742188 193.671875 1071.945312 195.292969 C 1073.144531 196.910156 1074.304688 198.558594 1075.425781 200.234375 C 1076.542969 201.910156 1077.621094 203.613281 1078.660156 205.34375 C 1079.695312 207.070312 1080.6875 208.824219 1081.640625 210.601562 C 1082.589844 212.378906 1083.496094 214.179688 1084.355469 216.003906 C 1085.21875 217.824219 1086.035156 219.667969 1086.804688 221.527344 C 1087.578125 223.390625 1088.304688 225.269531 1088.980469 227.167969 C 1089.660156 229.066406 1090.292969 230.980469 1090.878906 232.910156 C 1091.464844 234.839844 1092 236.78125 1092.492188 238.734375 C 1092.980469 240.691406 1093.421875 242.65625 1093.816406 244.632812 C 1094.207031 246.609375 1094.554688 248.597656 1094.847656 250.589844 C 1095.144531 252.585938 1095.390625 254.585938 1095.589844 256.589844 C 1095.785156 258.597656 1095.933594 260.605469 1096.035156 262.621094 C 1096.132812 264.632812 1096.183594 266.648438 1096.183594 268.664062 Z M 1096.183594 268.664062 " fill-opacity="1" fill-rule="nonzero"/></g></g></svg>